<svg width="60" height="60" viewBox="0 0 60 60" fill="none" xmlns="http://www.w3.org/2000/svg">
<path opacity="0.21" d="M37 0C49.7025 0 60 10.2975 60 23V37C60 49.7025 49.7025 60 37 60H23C10.2975 60 0 49.7025 0 37V23C0 10.2975 10.2975 0 23 0H37Z" fill="#8280FF"/>
<path d="M20.6667 23.3333C20.6667 26.2789 23.0545 28.6667 26 28.6667C28.9455 28.6667 31.3333 26.2789 31.3333 23.3333C31.3333 20.3878 28.9455 18 26 18C23.0545 18 20.6667 20.3878 20.6667 23.3333Z" fill="#8280FF"/>
<path d="M34 28.6667C34 30.8758 35.7909 32.6667 38 32.6667C40.2091 32.6667 42 30.8758 42 28.6667C42 26.4575 40.2091 24.6667 38 24.6667C35.7909 24.6667 34 26.4575 34 28.6667Z" fill="#8280FF"/>
<path d="M25.9778 31.3333C19.6826 31.3333 14.5177 34.5687 14.0009 40.9323C13.9727 41.2789 14.6356 42 14.97 42H36.9956C37.9972 42 38.0128 41.194 37.9972 40.9333C37.6065 34.3909 32.3616 31.3333 25.9778 31.3333Z" fill="#8280FF"/>
<path d="M45.2746 42H40.1333C40.1333 38.9988 39.1417 36.2291 37.4683 34.0008C42.0103 34.0505 45.7189 36.3469 45.998 41.2C46.0092 41.3955 45.998 42 45.2746 42Z" fill="#8280FF"/>
</svg>
